<?xml version="1.0" encoding="UTF-8"?>
<svg xmlns="http://www.w3.org/2000/svg" xmlns:xlink="http://www.w3.org/1999/xlink" width="96px" height="96px" viewBox="0 0 96 96" version="1.1">
<g id="surface94115">
<path style=" stroke:none;fill-rule:nonzero;fill:rgb(100%,34.117647%,13.333333%);fill-opacity:1;" d="M 12 66 L 26 75.882812 L 26 59.882812 L 12 50 Z M 12 66 "/>
<path style=" stroke:none;fill-rule:nonzero;fill:rgb(16.078431%,71.372549%,96.470588%);fill-opacity:1;" d="M 12 28 L 12 44 L 26 53.882812 L 26 37.882812 Z M 12 28 "/>
<path style=" stroke:none;fill-rule:nonzero;fill:rgb(97.254902%,34.509804%,91.372549%);fill-opacity:1;" d="M 30 78.707031 L 46 90 L 46 74 L 30 62.707031 Z M 30 78.707031 "/>
<path style=" stroke:none;fill-rule:nonzero;fill:rgb(36.470588%,89.019608%,45.098039%);fill-opacity:1;" d="M 30 40.707031 L 30 56.707031 L 46 68 L 46 52 Z M 30 40.707031 "/>
<path style=" stroke:none;fill-rule:nonzero;fill:rgb(16.078431%,71.372549%,96.470588%);fill-opacity:1;" d="M 84 66 L 70 75.882812 L 70 59.882812 L 84 50 Z M 84 66 "/>
<path style=" stroke:none;fill-rule:nonzero;fill:rgb(36.470588%,89.019608%,45.098039%);fill-opacity:1;" d="M 84 28 L 84 44 L 70 53.882812 L 70 37.882812 Z M 84 28 "/>
<path style=" stroke:none;fill-rule:nonzero;fill:rgb(100%,34.117647%,13.333333%);fill-opacity:1;" d="M 66 78.707031 L 50 90 L 50 74 L 66 62.707031 Z M 66 78.707031 "/>
<path style=" stroke:none;fill-rule:nonzero;fill:rgb(97.254902%,34.509804%,91.372549%);fill-opacity:1;" d="M 66 40.707031 L 66 56.707031 L 50 68 L 50 52 Z M 66 40.707031 "/>
<path style=" stroke:none;fill-rule:nonzero;fill:rgb(16.078431%,71.372549%,96.470588%);fill-opacity:1;" d="M 44.738281 25.230469 L 31.476562 16.390625 C 30.839844 15.964844 30.011719 15.941406 29.351562 16.332031 L 14.691406 25 L 29.238281 35.183594 Z M 44.738281 25.230469 "/>
<path style=" stroke:none;fill-rule:nonzero;fill:rgb(36.470588%,89.019608%,45.098039%);fill-opacity:1;" d="M 48.410156 22.871094 L 62.457031 13.851562 L 50.300781 6.660156 C 49.601562 6.222656 48.804688 6.003906 48.011719 6.003906 L 48.011719 6 C 48.007812 6 48.007812 6 48.003906 6 C 48.003906 6 48.003906 6 48 6 L 48 6.003906 C 47.203125 6.003906 46.40625 6.222656 45.710938 6.660156 L 34.253906 13.433594 Z M 48.410156 22.871094 "/>
<path style=" stroke:none;fill-rule:nonzero;fill:rgb(97.254902%,34.509804%,91.372549%);fill-opacity:1;" d="M 52.046875 25.292969 L 66.824219 35.144531 L 81.3125 25.003906 L 67.375 16.761719 C 66.722656 16.375 65.910156 16.390625 65.277344 16.796875 Z M 52.046875 25.292969 "/>
<path style=" stroke:none;fill-rule:nonzero;fill:rgb(100%,34.117647%,13.333333%);fill-opacity:1;" d="M 47.273438 28.359375 L 32.785156 37.664062 L 48 48.3125 L 48 48.320312 L 48.007812 48.316406 L 48.011719 48.320312 L 48.011719 48.3125 L 63.308594 37.605469 L 49.464844 28.375 C 48.800781 27.9375 47.941406 27.929688 47.273438 28.359375 Z M 47.273438 28.359375 "/>
</g>
</svg>
